<svg xmlns="http://www.w3.org/2000/svg" viewBox="0 0 800 200" width="100%" height="100%">
  <defs>
    <linearGradient id="grad" x1="0%" y1="0%" x2="100%" y2="100%">
      <stop offset="0%" stop-color="#2563EB" />
      <stop offset="100%" stop-color="#7C3AED" />
    </linearGradient>
  </defs>
  <!-- Icon: Double Vision Loop / B shape -->
  <g transform="translate(40, 30)">
    <path d="M40,20 C80,20 110,50 110,90 C110,130 80,160 40,160 C20,160 0,140 0,120 C0,100 20,80 40,80 C60,80 80,100 80,120" fill="none" stroke="url(#grad)" stroke-width="16" stroke-linecap="round"/>
    <path d="M100,20 C60,20 30,50 30,90 C30,130 60,160 100,160 C120,160 140,140 140,120 C140,100 120,80 100,80 C80,80 60,100 60,120" fill="none" stroke="url(#grad)" stroke-width="16" stroke-linecap="round" opacity="0.8"/>
    <circle cx="70" cy="90" r="12" fill="url(#grad)"/>
  </g>
  <!-- Text -->
  <text x="210" y="125" font-family="system-ui, sans-serif" font-weight="800" font-size="72" fill="#F1F5F9">Bebaa</text>
  <text x="445" y="125" font-family="system-ui, sans-serif" font-weight="400" font-size="72" fill="url(#grad)">Vision</text>
</svg>
